<svg xmlns="http://www.w3.org/2000/svg" version="1.1" xmlns:xlink="http://www.w3.org/1999/xlink" xmlns:svgjs="http://svgjs.com/svgjs" width="512" height="512" x="0" y="0" viewBox="0 0 24 24" style="enable-background:new 0 0 512 512" xml:space="preserve" class=""><g><script></script><linearGradient xmlns="http://www.w3.org/2000/svg" id="paint0_linear_16_1538" gradientUnits="userSpaceOnUse" x1="12" x2="12" y1="1.146" y2="23.393"><stop offset="0" stop-color="#ce9ffc"></stop><stop offset=".979167" stop-color="#7367f0"></stop></linearGradient><path xmlns="http://www.w3.org/2000/svg" d="m7.0501 13.406 3.534 3.536-1.413 1.414 1.415 1.415-1.414 1.414-2.475-2.475-2.829 2.829-1.414-1.414 2.829-2.83-2.475-2.474 1.414-1.414 1.414 1.413 1.413-1.414zm-4.05-10.406 3.546.003 11.817 11.818 1.415-1.414 1.414 1.414-2.474 2.475 2.828 2.829-1.414 1.414-2.829-2.829-2.475 2.475-1.414-1.414 1.414-1.415-11.825-11.825zm14.457 0 3.543.003.002 3.523-4.053 4.052-3.536-3.535z" fill="url(#paint0_linear_16_1538)" data-original="url(#paint0_linear_16_1538)" class=""></path></g></svg>